<?xml version="1.0" encoding="utf-8"?>
<!-- Generator: Adobe Illustrator 16.2.0, SVG Export Plug-In . SVG Version: 6.00 Build 0)  -->
<!DOCTYPE svg PUBLIC "-//W3C//DTD SVG 1.1//EN" "http://www.w3.org/Graphics/SVG/1.1/DTD/svg11.dtd">
<svg version="1.1" id="Layer_1" xmlns="http://www.w3.org/2000/svg" xmlns:xlink="http://www.w3.org/1999/xlink" x="0px" y="0px"
	 width="100px" height="32px" viewBox="0 0 100 32" enable-background="new 0 0 100 32" xml:space="preserve">
<g>
	<g>
		<path fill="#343943" d="M92.145,22.08c-0.08-0.466-0.972-0.982-0.949-0.912c0.482,1.75-1.42,5.723-2.719,5.723
			c-1.5,0-1.746-2.344-1.746-4.494c0-2.116,0.654-5.435,1.977-5.435c0.889,0-0.087,2.532-1.264,2.853
			c-0.338,0.095-0.141,0.394,0.109,0.496c0.406,0.168,0.824,0.328,1.26,0.431c0.181,0.044,0.358,0.073,0.519,0.028
			c1.045-0.295,2.267-2.371,2.267-3.338c0-1.53-3.3-2.484-4.896-2.307c-0.446,0.05-0.765,0.13-1.021,0.417
			c-2.066,2.319-3.576,11.351-4.826,11.351c-0.961,0-0.127-9.211,1.156-10.225c0.526-0.413,0.282-0.562-0.307-0.9
			c-0.32-0.183-2.266-1.038-2.805-0.573c-0.229,0.198-0.521,1.396-0.75,3.06c-0.6,2.21-2.426,8.638-3.42,8.638
			c-0.164,0-0.254-0.886-0.254-2.23c0-4.242,0.366-8.01,0.775-10.906c4.6,0.307,8.416,0.303,10.38-0.272
			c6.11-1.79,4.486-5.79,3.12-7.002c-0.333-0.296-0.756-0.43-0.973-0.43c0,0.042,0.433,0.758,0.205,1.84
			c-0.275,1.313-1.703,3.04-6.373,3.335c-1.846,0.117-3.869,0.16-5.985,0.15c0.36-2.08,0.677-3.372,0.714-3.592
			c0.025-0.147,0.01-0.274-0.064-0.377c-0.42-0.584-2.129-1.604-3.094-1.604c-0.125,0-0.492,0.344-0.453,0.46
			c0.155,0.438,0.09,0.76,0.09,1.2c0,0.546-0.151,1.946-0.342,3.86c-7.151-0.2-14.937-0.903-20.68-1.516
			c0.227-1.156,0.395-1.864,0.424-2.023c0.027-0.147,0.01-0.274-0.063-0.377c-0.418-0.584-2.13-1.604-3.094-1.604
			c-0.127,0-0.494,0.344-0.454,0.46c0.155,0.438,0.11,0.76,0.088,1.2c-0.027,0.65-0.07,1.316-0.125,1.988
			c-1.796-0.206-3.27-0.384-4.203-0.502c0,0,0.895-1.564,0.62-3.252C44.614,3.34,42.257,2,39.155,2c-0.01,0-0.018,0-0.026,0.002
			L39.01,2C30.637,2,15.438,9.714,9.676,9.714c-0.805,0-1.45-0.705-1.45-0.705c-0.073-0.06-0.29-0.07-0.366-0.018
			c-0.083,0.052-0.525,4.37,2.98,4.37c1.95,0,6.042-1.736,10.675-3.734c0.107,1.412-0.096,3.628-0.833,7.705
			c0,0-3.268,1.236-5.356,1.277c-0.334,0.009-0.637-0.189-0.875-0.492c-0.034-0.047-0.467-0.186-0.458,0.197
			c0.015,0.629,0.438,3.06,2.58,3.02c0.95-0.02,3.856-1.784,3.856-1.784c0.02,0.05-0.793,7.625,0.158,9.507
			c0.394,0.783,2.32,0.955,2.975,0.943c0.228-0.003,0.448-0.255,0.4-0.439c-0.647-2.455,0.648-9.304,1.994-11.764
			c0,0,0.17-0.202,0.166-0.406c-0.01-0.385-0.457-1.603-0.868-1.594c-0.08,0-0.972,0.44-1.524,0.563
			c0.12-2.153,1.548-5.41,1.748-7.108c0.048-0.39-0.27-0.767-0.626-1.057c4.853-2.063,9.882-3.978,13.39-4.397
			c2.177-0.26,5.36,0.066,5.657,2.338c0.195,1.5-0.952,2.638-0.952,2.638C37.62,8.16,30.7,7.37,30.2,10.154
			c-0.36,2.004,2.54,3.633,5.687,3.458c2.455,0.113,6.096-1.207,7.96-3.747c1.133,0.153,2.723,0.385,4.63,0.662
			c-0.783,7.954-3.12,16.364-4.767,16.364c-0.563,0-0.276-8.197,0.87-9.927c0.21-0.743-1.396-1.702-2.542-1.702
			c-0.718-0.146-2.217,3.317-2.668,5.362c-0.092-2.42-0.547-5.06-1.315-5.302c-0.542-0.17-1.107-0.302-1.676-0.396
			c-0.333-0.055-0.653-0.083-0.677,0.085c-0.16,1.05-1.668,2.349-1.977,2.593l-0.117,0.01c-0.06-0.553-0.485-0.817-0.984-1.026
			c-0.223-0.095-0.282-0.234-0.086-0.404c0.207-0.178,0.16-0.356-0.026-0.513c-0.202-0.17-1.95-1.16-2.684-1.16
			c-1.407,0-3.204,4.688-3.204,7.763c0,3.06,0.268,5.045,1.524,6.193c0.834,0.674,1.862,1.008,2.9,1.346
			c0.33,0.107,0.538,0.031,0.713-0.215c1.91-2.705,2.478-7.884,2.096-10.377c-0.016-0.119,0.018-0.265,0.087-0.367
			c0.67-1.035,1.888-1.801,2.05-2.051c0.342,0,0.502,3.615,0.478,4.975c-0.034,2.052-0.487,4.205-1.136,6.187
			c-0.056,0.166-0.085,0.308-0.036,0.429c0.464,1.127,1.83,1.66,3.443,1.414c0.25-0.039,0.33-0.119,0.33-0.33
			c-0.167-3.371,1.33-10.484,2-10.484c0.436,0-0.78,5.277,0.07,8.72c0.072,0.325,0.25,0.67,0.442,0.925
			c0.452,0.603,1.547,1.104,2.606,1.217c0.414,0.016,0.51,0.016,0.552-0.357c0.004-0.256,2.006-6.04,2.72-7.78
			c-0.13,1.337,0.034,4.996,0.42,6.554c0.1,0.845,2.294,1.609,3.026,1.609c0.633,0,2.073-4.438,2.274-5.3
			c0.043,0.002,0,2.078,0.336,3.19c0.06,0.196,0.129,0.402,0.242,0.59c0.331,0.544,1.789,1.486,2.586,1.486
			c0.916,0,1.66-4.59,1.62-4.59c0,0,0.03,0.036,0.04,0c-0.012,0.462,0.215,2.215,0.708,3.03c0.308,0.505,2.15,1.487,2.815,1.556
			c0.996,0,1.947-2.67,2.035-2.947c0.455,1.39,4.07,4.619,6.397,2.09c0.244-0.264,0.415-0.574,0.524-0.913
			c0.423-1.017,0.884-2.5,1.293-3.94c0.02,1.415,0.087,2.811,0.218,4.137c0.103,0.846,2.296,1.61,3.024,1.61
			c0.686,0,1.99-4.567,2.771-7.553c-0.076,2.085,0.007,4.256,0.38,5.96c0.137,0.625,2.03,1.602,3.11,1.602
			c0.875,0,2.298-7.144,2.387-7.359c0.117,0.106-0.017,4.412,1.979,5.967c0.736,0.576,1.521,1.072,2.476,1.307
			c1.595,0.391,4.521-4.775,4.013-7.72L92.145,22.08z M24.89,17.702c-0.786,2.337-1.672,5.8-2.148,8.334l-0.123,0.022
			c-0.042-1.351,0.53-6.498,0.874-7.863C23.493,18.195,24.883,17.421,24.89,17.702L24.89,17.702z M33.107,10.224
			c0.383-1.656,7.08-0.776,8.963-0.557c-1.39,1.19-3.418,2.06-5.557,2.06C34.428,11.727,32.891,11.159,33.107,10.224z M30.4,26.891
			c-1.178,0-1.714-4.365,0.013-7.988c0.06,0.676,0.76,1.863,1.52,1.863c0.063,0,0.15,0.185,0.17,0.277
			C32.326,22.245,31.855,26.891,30.4,26.891L30.4,26.891z M59.516,17.47c-0.033,0.091-0.248,0.19-0.371,0.183
			c-0.346-0.02-0.439,0.138-0.492,0.384c-0.33,1.489-1.461,8.854-2.245,8.854c-0.354,0-0.45-2.039-0.431-2.877
			c0.076-3.07,1.235-7.391,2.625-7.391C59.271,16.623,59.609,17.223,59.516,17.47z M61.335,26.891c-0.747,0-0.554-3.996-0.267-5.594
			c0.129-0.722,0.355-1.545,0.57-2.255c0.199-0.81-0.797-1.024-0.828-1.144c-0.06-0.213-0.102-0.556-0.158-0.77
			c-0.187-0.69-0.629-1.136-1.459-1.383c-0.916-0.274-1.822-0.527-2.787-0.618c-0.52-0.05-0.857,0.143-1.104,0.527
			c-1.164,1.674-2.855,11.233-4.683,11.233c-0.166,0-0.256-0.886-0.256-2.23c0-5.772,0.677-10.667,1.217-13.683
			c6.021,0.87,13.894,1.954,20.694,2.545c-0.205,2.29-0.403,4.994-0.467,7.751c-0.406,1.402-0.89,2.905-1.369,3.978
			c-0.44-1.752-1.369-3.41-1.578-3.792c-0.656-1.196-1.168-2.407-1.11-3.78c0.028-0.596,0.086-1.195,0.455-1.736
			c0.053-0.075,0.021-0.246-0.05-0.32c-0.387-0.433-1.85-0.72-2.387-0.444c-0.248,0.13-0.485,0.345-0.603,0.57
			c-0.39,0.736-0.426,1.532-0.284,2.31c0.198,1.072-0.007,2.099-0.298,3.125C64.132,22.762,62.732,26.891,61.335,26.891z
			 M63.961,25.723c0.34-1.621,1.475-3.24,1.824-4.859c0.002-0.008,0.02-0.01,0.08-0.038c0.355,0.731,2.605,4.45,1.24,5.856
			c-0.948,0.975-3.219-0.597-3.144-0.957L63.961,25.723z M82.859,9.906c0.113,0.005,0.841,0.027,0.998-0.082
			c0.953-0.676,2.242-3.838,2.238-4.765c0.016-0.216-0.002-0.334-0.205-0.458c-0.773-0.393-1.927-0.81-2.986-0.993
			c-0.324-0.057-0.463,0.168-0.355,0.454c0.465,0.35,0.438,4.147,0,5.44c-0.098,0.292,0,0.39,0.313,0.402L82.859,9.906z"/>
	</g>
</g>
</svg>
